/* XPM */
static char * 2d_player_xpm[] = {
"64 64 81 1",
" 	c #FFFFFF",
".	c #F0F0F0",
"+	c #D4D4D4",
"@	c #B8B8B8",
"#	c #9A9A9A",
"$	c #7A7A7A",
"%	c #5A5A5A",
"&	c #383838",
"*	c #0D0D0D",
"=	c #E0E0E0",
"-	c #B2B2B2",
";	c #757575",
">	c #000000",
",	c #F4F4F4",
"'	c #C2C2C2",
")	c #787878",
"!	c #0A0303",
"~	c #5C1919",
"{	c #8C2626",
"]	c #9D2B2B",
"^	c #9F2C2C",
"/	c #9E2C2C",
"(	c #9D2C2C",
"_	c #922828",
":	c #421212",
"<	c #F2F2F2",
"[	c #515151",
"}	c #2D0C0C",
"|	c #942828",
"1	c #1B0808",
"2	c #C5C5C5",
"3	c #636363",
"4	c #852525",
"5	c #9C2B2B",
"6	c #4F1616",
"7	c #E2E2E2",
"8	c #949494",
"9	c #8A2727",
"0	c #C8C8C8",
"a	c #585858",
"b	c #250A0A",
"c	c #F9F9F9",
"d	c #B4B4B4",
"e	c #792222",
"f	c #A8A8A8",
"g	c #8E2727",
"h	c #A4A4A4",
"i	c #902828",
"j	c #962A2A",
"k	c #992A2A",
"l	c #8D2727",
"m	c #381010",
"n	c #872525",
"o	c #0D0303",
"p	c #090202",
"q	c #9A2B2B",
"r	c #060202",
"s	c #3D1111",
"t	c #902C2C",
"u	c #822424",
"v	c #0E0404",
"w	c #9B2A2A",
"x	c #6A1D1D",
"y	c #2E2E2E",
"z	c #9B2B2B",
"A	c #8A2626",
"B	c #3F1111",
"C	c #8B2727",
"D	c #170606",
"E	c #3A1010",
"F	c #5F1A1A",
"G	c #130505",
"H	c #0F0404",
"I	c #360F0F",
"J	c #722020",
"K	c #721F1F",
"L	c #6B1E1E",
"M	c #431313",
"N	c #701E1E",
"O	c #862525",
"P	c #511616",
"                        .+@#$%&**&%$#@+.                        ",
"                     =-;>>>>>>>>>>>>>>>>;-=                     ",
"                  ,')>>>!~{]^^^^^^^^/(_:>>>)',                  ",
"                <@[>>}_^^^^^^^^^^^^^^^^^^|1>>[@<                ",
"               23>>4^^^^^^^^^^^^^^^^^^^^^^^56>>32               ",
"             78>>9^^^^^^^^^^^^^^^^^^^^^^^^^^^^>>>87             ",
"            0a>b/^^^^^^^^^^^^^^^^^^^^^^^^^^^^^^^>>a0            ",
"          cd>>e^^^^^^^^^^^^^^^^^^^^^^^^^^^^^^^^^^>>>dc          ",
"         <f>>g^^^^^^^^^^^^^^^^^^^^^^^^^^^^^^^^^^^^^>>f<         ",
"        <h>>i^^^^^^^^^^^^^^^^^^^^^^^^^^^^^^^^^^^^^^^>>h<        ",
"       cf>>j^^^^^^^^^^^^^^^^^^^^^^^^^^^^^^^^^^^^^^^^^>>fc       ",
"       d>>k^^^^^^^^^^^^^^^^^^^^^^^^^^^^^^^^^^^^^^^^^^^>>d       ",
"      0>>l^^^^^^^^^^^^^^^^^^^^^^^^^^^^^^^^^^^^^^^^^^^^^>>0      ",
"     7a>m^^^^^^^^^^^^^^^^^^^^^^^^^^^^^^^^^^^^^^^^^^^^^^^>a7     ",
"     8>>^^^^^^^^^^^^^^^^^^^^^^^^^^^^^^^^^^^^^^^^^^^^^^^^^>8     ",
"    2>>(^^^^^^^^^^^^^^^^^^^^^^^^^^^^^^^^^^^^^^^^^^^^^^^^^>>2    ",
"   <3>n^^^^^^^^^^^^^^^^^^^^^^^^^^^^^^^^^^^^^^^^^^^^^^^^^^^>3<   ",
"   @>o^^^^^^^^^^^^^^^^^^^^^^^^^^^^^^^^^^^^^^^^^^^^^^^^^^^^^>@   ",
"  ,[>k^^^^^^^^^^^^^^^^^^^^^^^^^^^^^^^^^^^^^^^^^^^^^^^^^^^^^>[,  ",
"  '>>^^^^^^^^^^^^^^^^^^^^^^^^^^^^^^^^^^^^^^^^^^^^^^^^^^^^^^^>'  ",
"  )>5^^^^^^^^^^^^^^^^^^^^^^^^^^^^^^^^^^^^^^^^^^^^^^^^^^^^^^^p)  ",
" =>6^^^^^^^^^^^^^^^^^^^^^^^^^^^^^^^^^^^^^^^^^^^^^^^^^^^^^^^^^>= ",
" ->q^^^^^^^^^^^^^^^^^^^^^^^^^^^^^^^^^^^^^^^^^^^^^^^^^^^^^^^^^r- ",
" ;>/^^^^^^^^^^^^^^^^^^^^^^^^^^^^^^^^^^^^^^^^^^^^^^^^^^^^^^^^^s; ",
".>>^^^^^^^^^^^^^^^^^^^^^^^^^^^^^^^^^^^^^^^^^^^^^^^^^^^^^^^^^^t>.",
"+>u^^^^^^^^^^^^^^^^^^^^^^^^^^^^^^^^^^^^^^^^^^^^^^^^^^^^^^^^^^^>+",
"@>5^^^^^^^^^^^^^^^^^^^^^^^^^^^^^^^^^^^^^^^^^^^^^^^^^^^^^^^^^^^v@",
"#>^^^^^^^^^^^^^^^^^^^^^^^^^^^^^^^^^^^^^^^^^^^^^^^^^^^^^^^^^^^^>#",
"$>^^^^^^^^^^^^^^^^^^^^^^^^^^^^^^^^^^^^^^^^^^^^^^^^^^^^^^^^^^^^>$",
"%>^^^^^^^^^^^^^^^^^^^^^^^^^^^^^^^^^^^^^^^^^^^^^^^^^^^^^^^^^^^^>%",
"&>/^^^^^^^^^^^^^^^^^^^^^^^^^^^^^^^^^^^^^^^^^^^^^^^^^^^^^^^^^^^>&",
"*>/^^^^^^^^^^^^^^^^^^^^^^^^^^^^^^^^^^^^^^^^^^^^^^^^^^^^^^^^^^^>*",
"*>/^^^^^^^^^^^^^^^^^^^^^^^^^^^^^^^^^^^^^^^^^^^^^^^^^^^^^^^^^^^>*",
"&>^^^^^^^^^^^^^^^^^^^^^^^^^^^^^^^^^^^^^^^^^^^^^^^^^^^^^^^^^^^^>&",
"%>/^^^^^^^^^^^^^^^^^^^^^^^^^^^^^^^^^^^^^^^^^^^^^^^^^^^^^^^^^^^>%",
"$>/^^^^^^^^^^^^^^^^^^^^^^^^^^^^^^^^^^^^^^^^^^^^^^^^^^^^^^^^^^^>$",
"#>/^^^^^^^^^^^^^^^^^^^^^^^^^^^^^^^^^^^^^^^^^^^^^^^^^^^^^^^^^^^>#",
"@>w^^^^^^^^^^^^^^^^^^^^^^^^^^^^^^^^^^^^^^^^^^^^^^^^^^^^^^^^^^^>@",
"+>x^^^^^^^^^^^^^^^^^^^^^^^^^^^^^^^^^^^^^^^^^^^^^^^^^^^^^^^^^^^>+",
".>>^^^^^^^^^^^^^^^^^^^^^^^^^^^^^^^^^^^^^^^^^^^^^^^^^^^^^^^^^^y>.",
" ;>z^^^^^^^^^^^^^^^^^^^^^^^^^^^^^^^^^^^^^^^^^^^^^^^^^^^^^^^^^>; ",
" ->A^^^^^^^^^^^^^^^^^^^^^^^^^^^^^^^^^^^^^^^^^^^^^^^^^^^^^^^^^>- ",
" =>B^^^^^^^^^^^^^^^^^^^^^^^^^^^^^^^^^^^^^^^^^^^^^^^^^^^^^^^^^>= ",
"  )>z^^^^^^^^^^^^^^^^^^^^^^^^^^^^^^^^^^^^^^^^^^^^^^^^^^^^^^^>)  ",
"  '>C^^^^^^^^^^^^^^^^^^^^^^^^^^^^^^^^^^^^^^^^^^^^^^^^^^^^^^^>'  ",
"  ,[D/^^^^^^^^^^^^^^^^^^^^^^^^^^^^^^^^^^^^^^^^^^^^^^^^^^^^^>[,  ",
"   @>B^^^^^^^^^^^^^^^^^^^^^^^^^^^^^^^^^^^^^^^^^^^^^^^^^^^^^>@   ",
"   <3>]^^^^^^^^^^^^^^^^^^^^^^^^^^^^^^^^^^^^^^^^^^^^^^^^^^^>3<   ",
"    2>E^^^^^^^^^^^^^^^^^^^^^^^^^^^^^^^^^^^^^^^^^^^^^^^^^^>>2    ",
"     8>F^^^^^^^^^^^^^^^^^^^^^^^^^^^^^^^^^^^^^^^^^^^^^^^^^>8     ",
"     7a>(^^^^^^^^^^^^^^^^^^^^^^^^^^^^^^^^^^^^^^^^^^^^^^^>a7     ",
"      0>G^^^^^^^^^^^^^^^^^^^^^^^^^^^^^^^^^^^^^^^^^^^^^^>>0      ",
"       d>H^^^^^^^^^^^^^^^^^^^^^^^^^^^^^^^^^^^^^^^^^^^^>>d       ",
"       cf>p^^^^^^^^^^^^^^^^^^^^^^^^^^^^^^^^^^^^^^^^^^>>fc       ",
"        <h>I^^^^^^^^^^^^^^^^^^^^^^^^^^^^^^^^^^^^^^^^>>h<        ",
"         <f>>]^^^^^^^^^^^^^^^^^^^^^^^^^^^^^^^^^^^^^>>f<         ",
"          cd>>J^^^^^^^^^^^^^^^^^^^^^^^^^^^^^^^^^^K>>dc          ",
"            0a>>(^^^^^^^^^^^^^^^^^^^^^^^^^^^^^^^>>a0            ",
"             78>>u/^^^^^^^^^^^^^^^^^^^^^^^^^^^L>>87             ",
"               23>>6/^^^^^^^^^^^^^^^^^^^^^^^n>>32               ",
"                <@[>>Mz^^^^^^^^^^^^^^^^^^/N>>[@<                ",
"                  ,')>>>>uz^^^^^^^//zOP:H>>)',                  ",
"                     =-;>>>>>>>>>>>>>>>>;-=                     ",
"                        .+@#$%&**&%$#@+.                        "};
