/* XPM */
static char *_dfff86554e04a01a6ba2d5c7e9510baKA17MTCfH8zRwdMd[] = {
/* columns rows colors chars-per-pixel */
"16 16 8 1 ",
"  c gray8",
". c #4A2F14",
"X c #7F4914",
"o c #B56414",
"O c #B58D65",
"+ c #EBB580",
"@ c gray92",
"# c white",
/* pixels */
"######    ######",
"####  .XX.  ####",
"###   XooX   ###",
"##     XX     ##",
"## .X@    @X. ##",
"# .X@@ @@ @@X. #",
"# XX@@ @@ @@XX #",
" .oXX@@XX@@XXo. ",
" Xo@XXXXXXXX@oX ",
" .X@        @X. ",
" .. .XXXXXX. .. ",
"# ............ #",
"##    OOOO    ##",
"# .X.. ++ ..X. #",
"# XoX. OO .XoX #",
"# ....    .... #"
};
