/* XPM */
static char *_5c0f3f8c7ae444fb975f4447a8801a9BrpwxT9uk2OhoSEj[] = {
/* columns rows colors chars-per-pixel */
"16 16 7 1 ",
"  c #282828",
". c #A81000",
"X c #F00818",
"o c #F86078",
"O c #F8B080",
"+ c #F8F8F8",
"@ c white",
/* pixels */
"@@@@@      @@@@@",
"@@@  ++..++  @@@",
"@@ +++XXXX+++ @@",
"@ ..XXooooXX.. @",
"@ .XXooooooXX. @",
" +XXoo++++ooXX+ ",
" ++Xo++++++oX++ ",
" ++Xo++++++oX++ ",
" +XXX++++++XXX+ ",
" .XX..++++..XX. ",
" ...        ... ",
"@   OO OO OO   @",
"@@ O++ ++ ++O @@",
"@@ O++++++++O @@",
"@@@ O++++++O @@@",
"@@@@        @@@@"
};
